<svg width="24" height="24" viewBox="0 0 24 24" fill="none" xmlns="http://www.w3.org/2000/svg">
<path d="M20.0469 2.98438C20.7441 2.98438 21.3594 3.59961 21.3594 4.33789V20.0469C21.3594 20.7852 20.7441 21.3594 20.0469 21.3594H4.25586C3.55859 21.3594 2.98438 20.7852 2.98438 20.0469V4.33789C2.98438 3.59961 3.55859 2.98438 4.25586 2.98438H20.0469ZM8.52148 18.7344V9.99805H5.81445V18.7344H8.52148ZM7.16797 8.76758C8.0293 8.76758 8.72656 8.07031 8.72656 7.20898C8.72656 6.34766 8.0293 5.60938 7.16797 5.60938C6.26562 5.60938 5.56836 6.34766 5.56836 7.20898C5.56836 8.07031 6.26562 8.76758 7.16797 8.76758ZM18.7344 18.7344V13.9355C18.7344 11.5977 18.2012 9.75195 15.4531 9.75195C14.1406 9.75195 13.2383 10.4902 12.8691 11.1875H12.8281V9.99805H10.2441V18.7344H12.9512V14.4277C12.9512 13.2793 13.1562 12.1719 14.5918 12.1719C15.9863 12.1719 15.9863 13.4844 15.9863 14.4688V18.7344H18.7344Z" fill="#263238"/>
</svg>
