<svg width="24" height="23" viewBox="0 0 24 23" fill="none" xmlns="http://www.w3.org/2000/svg">
<path d="M12.1719 6.45508C14.7559 6.45508 16.8887 8.58789 16.8887 11.1719C16.8887 13.7969 14.7559 15.8887 12.1719 15.8887C9.54688 15.8887 7.45508 13.7969 7.45508 11.1719C7.45508 8.58789 9.54688 6.45508 12.1719 6.45508ZM12.1719 14.248C13.8535 14.248 15.207 12.8945 15.207 11.1719C15.207 9.49023 13.8535 8.13672 12.1719 8.13672C10.4492 8.13672 9.0957 9.49023 9.0957 11.1719C9.0957 12.8945 10.4902 14.248 12.1719 14.248ZM18.1602 6.29102C18.1602 5.67578 17.668 5.18359 17.0527 5.18359C16.4375 5.18359 15.9453 5.67578 15.9453 6.29102C15.9453 6.90625 16.4375 7.39844 17.0527 7.39844C17.668 7.39844 18.1602 6.90625 18.1602 6.29102ZM21.2773 7.39844C21.3594 8.91602 21.3594 13.4688 21.2773 14.9863C21.1953 16.4629 20.8672 17.7344 19.8008 18.8418C18.7344 19.9082 17.4219 20.2363 15.9453 20.3184C14.4277 20.4004 9.875 20.4004 8.35742 20.3184C6.88086 20.2363 5.60938 19.9082 4.50195 18.8418C3.43555 17.7344 3.10742 16.4629 3.02539 14.9863C2.94336 13.4688 2.94336 8.91602 3.02539 7.39844C3.10742 5.92188 3.43555 4.60938 4.50195 3.54297C5.60938 2.47656 6.88086 2.14844 8.35742 2.06641C9.875 1.98438 14.4277 1.98438 15.9453 2.06641C17.4219 2.14844 18.7344 2.47656 19.8008 3.54297C20.8672 4.60938 21.1953 5.92188 21.2773 7.39844ZM19.3086 16.5859C19.8008 15.3965 19.6777 12.5254 19.6777 11.1719C19.6777 9.85938 19.8008 6.98828 19.3086 5.75781C18.9805 4.97852 18.3652 4.32227 17.5859 4.03516C16.3555 3.54297 13.4844 3.66602 12.1719 3.66602C10.8184 3.66602 7.94727 3.54297 6.75781 4.03516C5.9375 4.36328 5.32227 4.97852 4.99414 5.75781C4.50195 6.98828 4.625 9.85938 4.625 11.1719C4.625 12.5254 4.50195 15.3965 4.99414 16.5859C5.32227 17.4062 5.9375 18.0215 6.75781 18.3496C7.94727 18.8418 10.8184 18.7188 12.1719 18.7188C13.4844 18.7188 16.3555 18.8418 17.5859 18.3496C18.3652 18.0215 19.0215 17.4062 19.3086 16.5859Z" fill="#263238"/>
</svg>
