<svg width="27" height="20" viewBox="0 0 27 20" fill="none" xmlns="http://www.w3.org/2000/svg">
<path d="M23.9434 4.50195C24.4355 6.22461 24.4355 9.91602 24.4355 9.91602C24.4355 9.91602 24.4355 13.5664 23.9434 15.3301C23.6973 16.3145 22.918 17.0527 21.9746 17.2988C20.2109 17.75 13.2383 17.75 13.2383 17.75C13.2383 17.75 6.22461 17.75 4.46094 17.2988C3.51758 17.0527 2.73828 16.3145 2.49219 15.3301C2 13.5664 2 9.91602 2 9.91602C2 9.91602 2 6.22461 2.49219 4.50195C2.73828 3.51758 3.51758 2.73828 4.46094 2.49219C6.22461 2 13.2383 2 13.2383 2C13.2383 2 20.2109 2 21.9746 2.49219C22.918 2.73828 23.6973 3.51758 23.9434 4.50195ZM10.9414 13.2383L16.7656 9.91602L10.9414 6.59375V13.2383Z" fill="#263238"/>
</svg>
